<mxfile host="65bd71144e">
    <diagram id="n5W9dpHo_4uRlmlUV37y" name="Page-1">
        <mxGraphModel dx="1078" dy="560" grid="1" gridSize="10" guides="1" tooltips="1" connect="1" arrows="1" fold="1" page="1" pageScale="1" pageWidth="1700" pageHeight="1100" background="#FFFFFF" math="0" shadow="0">
            <root>
                <mxCell id="0"/>
                <mxCell id="1" parent="0"/>
                <mxCell id="Vt560z4J3A8kVG_z0Vwq-2" value="" style="rounded=1;whiteSpace=wrap;html=1;fontSize=20;fillColor=none;arcSize=2;dashed=1;" parent="1" vertex="1">
                    <mxGeometry x="161" y="271" width="959" height="459" as="geometry"/>
                </mxCell>
                <mxCell id="Vt560z4J3A8kVG_z0Vwq-3" value="Deployed Resources" style="rounded=1;whiteSpace=wrap;html=1;fontSize=20;fillColor=none;arcSize=2;dashed=1;labelPosition=center;verticalLabelPosition=bottom;align=center;verticalAlign=top;" parent="1" vertex="1">
                    <mxGeometry x="460" y="290" width="500" height="390" as="geometry"/>
                </mxCell>
                <mxCell id="Vt560z4J3A8kVG_z0Vwq-4" value="Deployment/Target&lt;br style=&quot;font-size: 20px;&quot;&gt;Account" style="outlineConnect=0;dashed=0;verticalLabelPosition=middle;verticalAlign=middle;align=left;html=1;shape=mxgraph.aws3.cloud_2;fillColor=#F58534;gradientColor=none;labelPosition=right;fontSize=20;" parent="1" vertex="1">
                    <mxGeometry x="160" y="270" width="60" height="60" as="geometry"/>
                </mxCell>
                <mxCell id="Vt560z4J3A8kVG_z0Vwq-5" value="Deploy" style="edgeStyle=orthogonalEdgeStyle;rounded=0;orthogonalLoop=1;jettySize=auto;html=1;entryX=0;entryY=0.5;entryDx=0;entryDy=0;fontSize=20;" parent="1" source="Vt560z4J3A8kVG_z0Vwq-6" target="Vt560z4J3A8kVG_z0Vwq-3" edge="1">
                    <mxGeometry relative="1" as="geometry"/>
                </mxCell>
                <mxCell id="Vt560z4J3A8kVG_z0Vwq-6" value="MDAA/CDK" style="sketch=0;points=[[0,0,0],[0.25,0,0],[0.5,0,0],[0.75,0,0],[1,0,0],[0,1,0],[0.25,1,0],[0.5,1,0],[0.75,1,0],[1,1,0],[0,0.25,0],[0,0.5,0],[0,0.75,0],[1,0.25,0],[1,0.5,0],[1,0.75,0]];outlineConnect=0;fontColor=#232F3E;gradientColor=#4D72F3;gradientDirection=north;fillColor=#3334B9;strokeColor=#ffffff;dashed=0;verticalLabelPosition=bottom;verticalAlign=top;align=center;html=1;fontSize=20;fontStyle=0;aspect=fixed;shape=mxgraph.aws4.resourceIcon;resIcon=mxgraph.aws4.cloud_development_kit;" parent="1" vertex="1">
                    <mxGeometry x="220" y="446" width="78" height="78" as="geometry"/>
                </mxCell>
                <mxCell id="Vt560z4J3A8kVG_z0Vwq-7" value="Athena Workgroup&#10;User Roles" style="group;labelPosition=center;verticalLabelPosition=top;align=center;verticalAlign=bottom;fontSize=16;" parent="1" vertex="1" connectable="0">
                    <mxGeometry x="1000" y="360" width="72" height="68" as="geometry"/>
                </mxCell>
                <mxCell id="Vt560z4J3A8kVG_z0Vwq-8" value="" style="rounded=0;whiteSpace=wrap;html=1;verticalAlign=top;fillColor=#C7131F;strokeColor=#ffffff;fontColor=#232F3E;sketch=0;gradientColor=#F54749;gradientDirection=north;dashed=0;fontStyle=0;" parent="Vt560z4J3A8kVG_z0Vwq-7" vertex="1">
                    <mxGeometry width="72" height="68" as="geometry"/>
                </mxCell>
                <mxCell id="Vt560z4J3A8kVG_z0Vwq-9" value="" style="sketch=0;outlineConnect=0;dashed=0;verticalLabelPosition=bottom;verticalAlign=top;align=center;html=1;fontSize=12;fontStyle=0;aspect=fixed;pointerEvents=1;shape=mxgraph.aws4.role;" parent="Vt560z4J3A8kVG_z0Vwq-7" vertex="1">
                    <mxGeometry x="5" y="17" width="60.27" height="34" as="geometry"/>
                </mxCell>
                <mxCell id="Vt560z4J3A8kVG_z0Vwq-15" value="Workgroup&lt;br style=&quot;font-size: 16px;&quot;&gt;KMS Key" style="sketch=0;points=[[0,0,0],[0.25,0,0],[0.5,0,0],[0.75,0,0],[1,0,0],[0,1,0],[0.25,1,0],[0.5,1,0],[0.75,1,0],[1,1,0],[0,0.25,0],[0,0.5,0],[0,0.75,0],[1,0.25,0],[1,0.5,0],[1,0.75,0]];outlineConnect=0;fontColor=#232F3E;gradientColor=#F54749;gradientDirection=north;fillColor=#C7131F;strokeColor=#ffffff;dashed=0;verticalLabelPosition=bottom;verticalAlign=top;align=center;html=1;fontSize=16;fontStyle=0;aspect=fixed;shape=mxgraph.aws4.resourceIcon;resIcon=mxgraph.aws4.key_management_service;" parent="1" vertex="1">
                    <mxGeometry x="487" y="530" width="78" height="78" as="geometry"/>
                </mxCell>
                <mxCell id="Vt560z4J3A8kVG_z0Vwq-23" value="Uses" style="edgeStyle=orthogonalEdgeStyle;rounded=0;orthogonalLoop=1;jettySize=auto;html=1;fontSize=16;" parent="1" source="Vt560z4J3A8kVG_z0Vwq-16" target="Vt560z4J3A8kVG_z0Vwq-15" edge="1">
                    <mxGeometry relative="1" as="geometry"/>
                </mxCell>
                <mxCell id="Vt560z4J3A8kVG_z0Vwq-16" value="Workgroup&lt;br style=&quot;font-size: 16px;&quot;&gt;Athena Results&lt;br style=&quot;font-size: 16px;&quot;&gt;Bucket" style="sketch=0;points=[[0,0,0],[0.25,0,0],[0.5,0,0],[0.75,0,0],[1,0,0],[0,1,0],[0.25,1,0],[0.5,1,0],[0.75,1,0],[1,1,0],[0,0.25,0],[0,0.5,0],[0,0.75,0],[1,0.25,0],[1,0.5,0],[1,0.75,0]];outlineConnect=0;fontColor=#232F3E;gradientColor=#60A337;gradientDirection=north;fillColor=#277116;strokeColor=#ffffff;dashed=0;verticalLabelPosition=bottom;verticalAlign=top;align=center;html=1;fontSize=16;fontStyle=0;aspect=fixed;shape=mxgraph.aws4.resourceIcon;resIcon=mxgraph.aws4.s3;" parent="1" vertex="1">
                    <mxGeometry x="680" y="530" width="78" height="78" as="geometry"/>
                </mxCell>
                <mxCell id="Vt560z4J3A8kVG_z0Vwq-17" style="edgeStyle=orthogonalEdgeStyle;rounded=0;orthogonalLoop=1;jettySize=auto;html=1;fontSize=16;exitX=0;exitY=0.5;exitDx=0;exitDy=0;" parent="1" source="6" target="Vt560z4J3A8kVG_z0Vwq-15" edge="1">
                    <mxGeometry relative="1" as="geometry">
                        <Array as="points">
                            <mxPoint x="720" y="394"/>
                            <mxPoint x="720" y="490"/>
                            <mxPoint x="526" y="490"/>
                        </Array>
                    </mxGeometry>
                </mxCell>
                <mxCell id="Vt560z4J3A8kVG_z0Vwq-18" style="edgeStyle=orthogonalEdgeStyle;rounded=0;orthogonalLoop=1;jettySize=auto;html=1;fontSize=16;exitX=0;exitY=0.5;exitDx=0;exitDy=0;" parent="1" source="6" target="Vt560z4J3A8kVG_z0Vwq-16" edge="1">
                    <mxGeometry relative="1" as="geometry">
                        <Array as="points">
                            <mxPoint x="719" y="394"/>
                        </Array>
                    </mxGeometry>
                </mxCell>
                <mxCell id="Vt560z4J3A8kVG_z0Vwq-22" value="Uses" style="edgeStyle=orthogonalEdgeStyle;rounded=0;orthogonalLoop=1;jettySize=auto;html=1;fontSize=16;" parent="1" source="Vt560z4J3A8kVG_z0Vwq-19" target="Vt560z4J3A8kVG_z0Vwq-16" edge="1">
                    <mxGeometry relative="1" as="geometry"/>
                </mxCell>
                <mxCell id="Vt560z4J3A8kVG_z0Vwq-19" value="Athena&lt;br style=&quot;font-size: 16px;&quot;&gt;Workgroup" style="sketch=0;points=[[0,0,0],[0.25,0,0],[0.5,0,0],[0.75,0,0],[1,0,0],[0,1,0],[0.25,1,0],[0.5,1,0],[0.75,1,0],[1,1,0],[0,0.25,0],[0,0.5,0],[0,0.75,0],[1,0.25,0],[1,0.5,0],[1,0.75,0]];outlineConnect=0;fontColor=#232F3E;gradientColor=#945DF2;gradientDirection=north;fillColor=#5A30B5;strokeColor=#ffffff;dashed=0;verticalLabelPosition=bottom;verticalAlign=top;align=center;html=1;fontSize=16;fontStyle=0;aspect=fixed;shape=mxgraph.aws4.resourceIcon;resIcon=mxgraph.aws4.athena;" parent="1" vertex="1">
                    <mxGeometry x="850" y="530" width="78" height="78" as="geometry"/>
                </mxCell>
                <mxCell id="Vt560z4J3A8kVG_z0Vwq-20" value="" style="edgeStyle=orthogonalEdgeStyle;rounded=0;orthogonalLoop=1;jettySize=auto;html=1;fontSize=16;" parent="1" target="Vt560z4J3A8kVG_z0Vwq-15" edge="1">
                    <mxGeometry relative="1" as="geometry">
                        <mxPoint x="526" y="490" as="sourcePoint"/>
                    </mxGeometry>
                </mxCell>
                <mxCell id="Vt560z4J3A8kVG_z0Vwq-21" value="Access To" style="edgeStyle=orthogonalEdgeStyle;rounded=0;orthogonalLoop=1;jettySize=auto;html=1;entryX=0.5;entryY=0;entryDx=0;entryDy=0;entryPerimeter=0;fontSize=16;exitX=0;exitY=0.5;exitDx=0;exitDy=0;" parent="1" source="6" target="Vt560z4J3A8kVG_z0Vwq-19" edge="1">
                    <mxGeometry x="-0.2416" relative="1" as="geometry">
                        <Array as="points">
                            <mxPoint x="720" y="394"/>
                            <mxPoint x="720" y="490"/>
                            <mxPoint x="889" y="490"/>
                        </Array>
                        <mxPoint as="offset"/>
                    </mxGeometry>
                </mxCell>
                <mxCell id="5" value="Athena Workgroup&#10;Managed Policies" style="group;labelPosition=center;verticalLabelPosition=top;align=center;verticalAlign=bottom;fontSize=16;" vertex="1" connectable="0" parent="1">
                    <mxGeometry x="800" y="360" width="72" height="68" as="geometry"/>
                </mxCell>
                <mxCell id="6" value="" style="rounded=0;whiteSpace=wrap;html=1;verticalAlign=top;fillColor=#C7131F;strokeColor=#ffffff;fontColor=#232F3E;sketch=0;gradientColor=#F54749;gradientDirection=north;dashed=0;fontStyle=0;" vertex="1" parent="5">
                    <mxGeometry width="72" height="68" as="geometry"/>
                </mxCell>
                <mxCell id="4" value="" style="sketch=0;outlineConnect=0;fontColor=#333333;fillColor=#f5f5f5;strokeColor=#666666;dashed=0;verticalLabelPosition=bottom;verticalAlign=top;align=center;html=1;fontSize=12;fontStyle=0;aspect=fixed;pointerEvents=1;shape=mxgraph.aws4.policy;" vertex="1" parent="5">
                    <mxGeometry x="7.889999999999986" y="9" width="58.21" height="50" as="geometry"/>
                </mxCell>
                <mxCell id="9" value="Assigned To" style="edgeStyle=none;html=1;exitX=1;exitY=0.5;exitDx=0;exitDy=0;fontSize=17;" edge="1" parent="1" source="6">
                    <mxGeometry relative="1" as="geometry">
                        <mxPoint x="870" y="394" as="sourcePoint"/>
                        <mxPoint x="1000" y="394" as="targetPoint"/>
                    </mxGeometry>
                </mxCell>
            </root>
        </mxGraphModel>
    </diagram>
</mxfile>